# xmcd
#
# Track frame offsets: 
#        150
#        14028
#        29958
#        42388
#        53565
#        67990
#        82803
#        96833
#        113293
#        125418
#        140233
#        153203
#        163898
#        175928
#        189960
#        206608
#        220873
#        235328
#        251713
#        265350
#        280250
#        297958
#
# Disc length: 4200 seconds
#
# Revision: 7
# Processed by: cddbd v1.5.2PL0 Copyright (c) Steve Scherf et al.
# Submitted via: ExactAudioCopyFreeDBPlugin 1.0
#
DISCID=46106616
DTITLE=Various Artist - The Complete Stax-Volt Singles, 1959-1975
DYEAR=1993
DGENRE=Soul
TTITLE0=Eddie Giles - Losing Boy
TTITLE1=The Staple Singers - Respect Yourself
TTITLE2=Hot Sauce - I'll Kill a Brick (About My Man)
TTITLE3=Jean Knight - You Think You're Hot Stuff
TTITLE4=William Bell - All For the Love of a Woman
TTITLE5=Isaac Hayes - Theme from "Shaft"
TTITLE6=The M.G.'s - Jamaica This Morning
TTITLE7=The Mad Lads - Gone the Promise of Yesterday
TTITLE8=Major Lance - Girl Come on Home
TTITLE9=Joni Wilson - (Let Hurt Put You in The) Loser's Seat
TTITLE10=The Temprees - My Baby Love
TTITLE11=The Leaders - How Do You Move a Mountain
TTITLE12=Black Nasty - Black Nasty Boogie (Part 6)
TTITLE13=Rufus Thomas - Do the Funky Penguin (Part 1)
TTITLE14=Carla Thomas - You've Got a Cushion to Fall On
TTITLE15=The Dramatics - Get Up and Get Down
TTITLE16=The Bar-Kays - Son of Shaft
TTITLE17=L.V. Johnson - Don't Cha Mess with My Money, My Honey, or My 
TTITLE17=Woman
TTITLE18=Eric Mercury - I Can Smell That Funky Music
TTITLE19=Calvin Scott - A Sadness for Things
TTITLE20=Little Milton - That's What Love Will Make You Do
TTITLE21=Johnnie Taylor - Standing in for Jody
EXTD=
EXTT0=Eddie Giles
EXTT1=The Staple Singers
EXTT2=Hot Sauce
EXTT3=Jean Knight
EXTT4=William Bell
EXTT5=Isaac Hayes
EXTT6=The MGs
EXTT7=The Mad Lads
EXTT8=Major Lance
EXTT9=Joni Wilson
EXTT10=The Temprees
EXTT11=The Leaders
EXTT12=Black Nasty
EXTT13=Rufus Thomas
EXTT14=Carla Thomas
EXTT15=The Dramatics
EXTT16=The Bar-Kays
EXTT17=L.V. Johnson
EXTT18=Eric Mercury
EXTT19=Calvin Scott
EXTT20=Little Milton
EXTT21=Johnnie Taylor
PLAYORDER=
